<svg width="24" height="24" viewBox="0 0 24 24" fill="none" xmlns="http://www.w3.org/2000/svg">
<path d="M12.0005 1C9.79447 1 8.00047 2.794 8.00047 5H5.00047C4.00147 5 3.17014 5.69552 3.01414 6.72852L2.02196 19.7773C1.93396 20.3513 2.11324 20.9275 2.51024 21.3555C2.88824 21.7655 3.43247 22 4.00047 22H20.0005C20.5685 22 21.1118 21.7654 21.4888 21.3574C21.8878 20.9274 22.0658 20.3525 21.9868 19.8535L20.9888 6.72852L20.979 6.65234C20.831 5.69534 19.9995 5 19.0005 5H16.0005C16.0005 2.794 14.2065 1 12.0005 1ZM12.0005 3C13.1035 3 14.0005 3.897 14.0005 5H10.0005C10.0005 3.897 10.8975 3 12.0005 3ZM6.67625 9.20508H8.31297V13.168L8.47703 12.9492L9.71141 11.4141H11.6723L9.8325 13.5762L11.7934 16.6699H9.92039L8.77391 14.7129L8.31102 15.1738V16.6699H6.67625V9.20508ZM14.4067 11.3184C14.9537 11.3184 15.382 11.5021 15.688 11.8711L15.7466 11.4141H17.2329V16.4707C17.2329 16.9337 17.1257 17.3357 16.9087 17.6777C16.6937 18.0187 16.3841 18.2809 15.9751 18.4629C15.5671 18.6469 15.0941 18.7363 14.5571 18.7363C14.1721 18.7363 13.799 18.6646 13.438 18.5176C13.077 18.3716 12.8008 18.1832 12.6098 17.9512L13.2954 16.9883C13.5994 17.3473 14.0005 17.5273 14.4985 17.5273C15.2235 17.5273 15.5864 17.1561 15.5864 16.4121V16.2461C15.2724 16.5931 14.875 16.7656 14.397 16.7656C13.756 16.7656 13.2383 16.5223 12.8423 16.0312C12.4473 15.5413 12.2505 14.8855 12.2505 14.0625V14.0039C12.2505 13.4739 12.3382 13.0037 12.5122 12.5957C12.6882 12.1887 12.9391 11.8714 13.2661 11.6504C13.5931 11.4294 13.9727 11.3184 14.4067 11.3184ZM14.8247 12.5801C14.5327 12.5791 14.3051 12.7107 14.1391 12.9707C13.9741 13.2327 13.8911 13.6095 13.8911 14.1055C13.8911 14.5355 13.9732 14.877 14.1352 15.127C14.2962 15.378 14.5229 15.5039 14.8149 15.5039C15.1669 15.5039 15.4244 15.3844 15.5864 15.1484V12.9395C15.4284 12.7005 15.1747 12.5801 14.8247 12.5801Z" fill="#00CDE6"/>
</svg>
