<svg width="24" height="24" viewBox="0 0 24 24" fill="none" xmlns="http://www.w3.org/2000/svg">
<path d="M3 3V5.41406L5.41406 3H3ZM8.58594 3L14.293 8.70703L15.707 7.29297L11.4141 3H8.58594ZM16.5859 3L15.293 4.29297L16.707 5.70703L19.4141 3H16.5859ZM7.29297 4.29297L3 8.58594V11.4141L8.70703 5.70703L7.29297 4.29297ZM21 4.58594L15.293 10.293L16.707 11.707L21 7.41406V4.58594ZM9.70703 7.29297L8.29102 8.70703L14.291 14.707L15.7051 13.293L9.70703 7.29297ZM7.29297 10.293L3 14.5859V17.4141L8.70703 11.707L7.29297 10.293ZM21 10.5859L15.293 16.293L16.707 17.707L21 13.4141V10.5859ZM9.70703 13.293L8.29102 14.707L14.291 20.707L15.7051 19.293L9.70703 13.293ZM7.29297 16.293L3 20.5859V21H5.41406L8.70703 17.707L7.29297 16.293ZM21 16.5859L16.5859 21H19.4141L21 19.4141V16.5859ZM9.70703 19.293L8.29297 20.707L8.58594 21H11.4141L9.70703 19.293Z" fill="#6AD95E"/>
</svg>
