<svg width="24" height="24" viewBox="0 0 24 24" fill="none" xmlns="http://www.w3.org/2000/svg">
<path d="M16.0635 2C15.9345 2 15.8265 2.09661 15.8115 2.22461L15.6943 3.23633C15.2103 3.4043 14.7729 3.6598 14.3936 3.98828L13.4561 3.58398C13.3381 3.53298 13.2017 3.57745 13.1377 3.68945L12.2002 5.31055C12.1352 5.42155 12.1656 5.56363 12.2686 5.64062L13.0772 6.24023C13.0297 6.48651 12.999 6.73989 12.999 7C12.999 7.26011 13.0297 7.51349 13.0772 7.75977L12.2686 8.35938C12.1656 8.43538 12.1362 8.57745 12.2002 8.68945L13.1377 10.3105C13.2017 10.4225 13.3381 10.469 13.4561 10.418L14.3936 10.0117C14.7729 10.3402 15.2103 10.5957 15.6943 10.7637L15.8115 11.7754C15.8265 11.9034 15.9345 12 16.0635 12H17.9346C18.0636 12 18.1715 11.9034 18.1865 11.7754L18.3037 10.7637C18.7882 10.5955 19.2268 10.3407 19.6065 10.0117L20.542 10.4141C20.66 10.4651 20.7964 10.4206 20.8604 10.3086L21.7979 8.6875C21.8629 8.5765 21.8325 8.43442 21.7295 8.35742L20.9229 7.75781C20.97 7.51218 20.999 7.25938 20.999 7C20.999 6.73989 20.9683 6.48651 20.9209 6.24023L21.7295 5.64062C21.8325 5.56463 21.8619 5.42255 21.7979 5.31055L20.8604 3.68945C20.7964 3.57745 20.66 3.53103 20.542 3.58203L19.6045 3.98828C19.2251 3.6598 18.7877 3.4043 18.3037 3.23633L18.1865 2.22461C18.1715 2.09661 18.0636 2 17.9346 2H16.0635ZM16.999 5.25C17.965 5.25 18.749 6.034 18.749 7C18.749 7.967 17.965 8.75 16.999 8.75C16.033 8.75 15.249 7.967 15.249 7C15.249 6.034 16.033 5.25 16.999 5.25ZM7.06349 9C6.93449 9 6.82653 9.09661 6.81153 9.22461L6.6377 10.7109C5.83044 10.9406 5.10172 11.3524 4.51661 11.9219L3.15724 11.3359C3.03924 11.2849 2.90288 11.3294 2.83888 11.4414L1.90138 13.0625C1.83638 13.1735 1.86674 13.3156 1.96974 13.3926L3.167 14.2793C3.06783 14.6721 2.99903 15.0765 2.99903 15.5C2.99903 15.9235 3.06783 16.3279 3.167 16.7207L1.96974 17.6094C1.86674 17.6854 1.83738 17.8275 1.90138 17.9395L2.83888 19.5605C2.90288 19.6725 3.03924 19.717 3.15724 19.666L4.51661 19.0781C5.10172 19.6476 5.83044 20.0594 6.6377 20.2891L6.81153 21.7754C6.82653 21.9034 6.93449 22 7.06349 22H8.93458C9.06358 22 9.17153 21.9034 9.18653 21.7754L9.36036 20.2891C10.1676 20.0594 10.8963 19.6476 11.4815 19.0781L12.8408 19.6641C12.9588 19.7151 13.0952 19.6706 13.1592 19.5586L14.0967 17.9375C14.1617 17.8265 14.1313 17.6844 14.0283 17.6074L12.8311 16.7207C12.9302 16.3279 12.999 15.9235 12.999 15.5C12.999 15.0765 12.9302 14.6721 12.8311 14.2793L14.0283 13.3906C14.1313 13.3146 14.1607 13.1725 14.0967 13.0605L13.1592 11.4395C13.0952 11.3275 12.9588 11.283 12.8408 11.334L11.4815 11.9219C10.8963 11.3524 10.1676 10.9406 9.36036 10.7109L9.18653 9.22461C9.17153 9.09661 9.06358 9 8.93458 9H7.06349ZM7.99903 13.5C9.10403 13.5 9.99903 14.395 9.99903 15.5C9.99903 16.605 9.10403 17.5 7.99903 17.5C6.89403 17.5 5.99903 16.605 5.99903 15.5C5.99903 14.395 6.89403 13.5 7.99903 13.5Z" fill="#A8AFFF"/>
</svg>
