<svg width="24" height="24" viewBox="0 0 24 24" fill="none" xmlns="http://www.w3.org/2000/svg">
<path d="M11.9996 22C13.2556 22 14.4581 21.5258 15.4371 20.6758C16.4041 21.0958 17.4921 21.1111 18.5231 20.7051C19.5261 20.3111 20.3482 19.4953 20.7262 18.4863C21.1372 17.3923 21.0725 16.2426 20.6325 15.2656C21.7825 14.3846 22.2835 12.9068 21.8395 11.4258C21.4005 9.95878 19.9818 9 18.4508 9L18.3883 9L18.3864 9C18.4854 9.844 18.6682 10.8538 18.8512 11.7578C19.1562 13.2668 18.291 14.7736 16.82 15.2266C15.513 15.6296 13.8186 16 11.9996 16C10.1786 16 8.48528 15.6296 7.18128 15.2266C5.71528 14.7726 4.85198 13.2726 5.15198 11.7676C5.33198 10.8616 5.51292 9.84895 5.61292 9.00195L5.61097 9.00195L5.52503 9.00195C4.00703 9.00195 2.60465 9.9513 2.16565 11.4043C1.71565 12.8893 2.19998 14.385 3.40198 15.252C2.93198 16.216 2.86897 17.3188 3.23597 18.3848C3.61297 19.4768 4.49953 20.363 5.58753 20.75C6.59053 21.107 7.61987 21.0821 8.61487 20.6641C9.54087 21.5251 10.7436 22 11.9996 22ZM12.9996 14L12.9996 2L10.9996 2L10.9996 14L12.9996 14ZM15.0289 13.2422L16.9703 12.7578C16.9703 12.7578 15.9996 8.90476 15.9996 2L13.9996 2C13.9996 9.09524 15.0289 13.2422 15.0289 13.2422ZM8.97034 13.2422C8.97034 13.2422 9.99964 9.09524 9.99964 2L7.99964 2C7.99964 8.90476 7.02894 12.7578 7.02894 12.7578L8.97034 13.2422Z" fill="#B1A2DA"/>
</svg>
