<svg width="24" height="24" viewBox="0 0 24 24" fill="none" xmlns="http://www.w3.org/2000/svg">
<path d="M10 2C8.69839 2 7.59786 2.83875 7.18359 4H2V6H7.18359C7.59786 7.16125 8.69839 8 10 8C11.654 8 13 6.654 13 5C13 3.346 11.654 2 10 2ZM15 4V6H22V4H15ZM15 9C13.6984 9 12.5979 9.83875 12.1836 11H2V13H12.1836C12.5979 14.1613 13.6984 15 15 15C16.654 15 18 13.654 18 12C18 10.346 16.654 9 15 9ZM20 11V13H22V11H20ZM7 16C5.69839 16 4.59786 16.8387 4.18359 18H2V20H4.18359C4.59786 21.1613 5.69839 22 7 22C8.654 22 10 20.654 10 19C10 17.346 8.654 16 7 16ZM12 18V20H22V18H12Z" fill="#2F4858"/>
</svg>
