<svg width="24" height="24" viewBox="0 0 24 24" fill="none" xmlns="http://www.w3.org/2000/svg">
<path d="M14.5 2C12.5781 2 11 3.57812 11 5.5H13C13 4.625 13.625 4 14.5 4C15.375 4 16 4.625 16 5.5C16 6.375 15.375 7 14.5 7H2V9H14.5C16.4219 9 18 7.42188 18 5.5C18 3.57812 16.4219 2 14.5 2ZM2 11V13H18C19.1914 13 20 13.8086 20 15C20 16.1914 19.1914 17 18 17C16.8086 17 16 16.1914 16 15H14C14 17.2109 15.7891 19 18 19C20.2109 19 22 17.2109 22 15C22 12.7891 20.2109 11 18 11H2ZM2 15V17H8.5C9.375 17 10 17.625 10 18.5C10 19.375 9.375 20 8.5 20C7.625 20 7 19.375 7 18.5H5C5 20.4219 6.57812 22 8.5 22C10.4219 22 12 20.4219 12 18.5C12 16.5781 10.4219 15 8.5 15H2Z" fill="#2F4858"/>
</svg>
