<svg width="282" height="203" viewBox="0 0 282 203" fill="none" xmlns="http://www.w3.org/2000/svg">
<path d="M0.810787 99.0524C3.23975 158.074 63.4098 204.301 135.204 202.304C206.999 200.307 263.231 150.843 260.802 91.8213C258.373 32.8001 200.892 51.9182 129.098 53.915C57.303 55.9118 -1.61817 40.0312 0.810787 99.0524Z" fill="#2F4858"/>
<path d="M22.8102 69.4879C12.1807 127.893 61.157 182.323 132.202 191.062C203.247 199.8 269.457 159.537 280.087 101.132C290.716 42.7275 229.971 52.9603 158.926 44.2219C87.8815 35.4835 33.4398 11.083 22.8102 69.4879Z" fill="#B1A2DA"/>
<path d="M81.9407 86.088L90.4807 76.26H84.5167L77.1247 84.604V76.26H72.3087V96H77.1247V91.632L78.7487 89.868L84.2647 96H90.7607L81.9407 86.088Z" fill="black"/>
<path d="M106.234 80.74H101.39V88.832C101.39 89.896 101.222 90.708 100.886 91.296C100.55 91.884 99.8778 92.164 98.8978 92.164C97.9178 92.164 97.2458 91.884 96.9098 91.324C96.5458 90.792 96.3778 89.952 96.3778 88.832V80.74H91.5618V89.868C91.5618 91.212 91.9258 92.388 92.6818 93.368C93.4098 94.376 94.3338 95.104 95.4258 95.552C96.5178 96.028 97.6658 96.252 98.8978 96.252C100.914 96.252 102.65 95.664 104.078 94.516C105.506 93.368 106.234 91.8 106.234 89.868V80.74Z" fill="black"/>
<path d="M118.528 86.76L123.876 80.768H118.304L113.404 86.032V80.768H108.588V96H113.404V92.5L115.364 90.512L118.668 96H123.988L118.528 86.76Z" fill="black"/>
<path d="M134.054 79.872C133.438 78.22 132.514 76.904 131.31 75.98C130.078 75.056 128.65 74.608 126.998 74.608C126.69 74.608 126.186 74.664 125.486 74.804V78.472C126.186 78.388 126.606 78.332 126.802 78.332C128.23 78.332 129.322 79.144 130.078 80.768L129.854 81.02L123.834 96H129.014L131.842 86.844L131.982 86.648L134.894 96H140.074L134.054 79.872Z" fill="black"/>
<path d="M155.519 84.828C156.331 85.024 157.003 85.444 157.507 86.088C158.011 86.732 158.263 87.488 158.263 88.384C158.263 90.792 157.507 91.996 155.995 91.996C154.679 91.996 154.007 90.876 154.007 88.664V86.396H149.499V88.664C149.499 90.876 148.827 91.996 147.511 91.996C145.999 91.996 145.243 90.792 145.243 88.384C145.243 87.488 145.495 86.732 145.999 86.088C146.475 85.444 147.147 85.024 147.987 84.828V80.488C145.831 80.516 144.067 81.216 142.639 82.644C141.211 84.072 140.483 86.004 140.483 88.384C140.483 90.82 141.071 92.724 142.275 94.124C143.451 95.552 145.103 96.252 147.203 96.252C149.443 96.252 150.955 95.3 151.767 93.368C152.523 95.3 154.035 96.252 156.331 96.252C158.403 96.252 160.027 95.552 161.231 94.124C162.435 92.724 163.023 90.82 163.023 88.384C163.023 86.004 162.323 84.072 160.895 82.644C159.467 81.216 157.675 80.516 155.519 80.488V84.828Z" fill="black"/>
<path d="M174.612 80.768L171.28 87.936L167.92 80.768H162.88L170.16 96H172.372L179.652 80.768H174.612Z" fill="black"/>
<path d="M181.081 96H185.897V80.768H181.081V96Z" fill="black"/>
<path d="M198.497 86.76L203.845 80.768H198.273L193.373 86.032V80.768H188.557V96H193.373V92.5L195.333 90.512L198.637 96H203.957L198.497 86.76Z" fill="black"/>
<path d="M213.184 80.488C211.98 80.488 210.804 80.796 209.712 81.44V80.768H204.896V96H209.712V85.668C210.412 85.052 211.28 84.744 212.288 84.744C213.212 84.744 213.856 84.968 214.276 85.416C214.668 85.892 214.864 86.62 214.864 87.6V96H219.708V87.6C219.708 85.052 219.204 83.204 218.224 82.112C217.216 81.02 215.536 80.488 213.184 80.488ZM218.364 74.776L213.184 74.356L210.076 79.48H212.96L218.364 74.776Z" fill="black"/>
<path d="M81.0102 110.768H67.8222V114.66H72.0222V126H76.8662V114.66H81.0102V110.768Z" fill="black"/>
<path d="M94.749 121.156C93.545 121.688 92.621 122.024 91.921 122.22C91.221 122.416 90.353 122.528 89.317 122.528C88.449 122.528 87.777 122.388 87.357 122.136C86.909 121.884 86.685 121.576 86.685 121.184C86.685 120.764 86.853 120.372 87.217 120.036C87.581 119.728 88.169 119.56 89.037 119.56H92.397V116.984H89.709C88.001 116.984 87.161 116.48 87.161 115.5C87.161 115.08 87.441 114.744 87.973 114.492C88.505 114.268 89.205 114.156 90.101 114.156C91.193 114.156 92.677 114.492 94.497 115.192L96.345 112.252C93.825 111.076 91.529 110.488 89.429 110.488C87.217 110.488 85.537 110.824 84.333 111.468C83.129 112.14 82.541 113.288 82.541 114.94C82.541 116.396 83.325 117.488 84.865 118.188C82.933 118.776 81.981 119.98 81.981 121.772C81.981 124.768 84.361 126.252 89.149 126.252C90.577 126.252 91.837 126.084 92.929 125.776C94.021 125.468 95.253 124.964 96.625 124.264L94.749 121.156Z" fill="black"/>
<path d="M104.972 122.192L107.716 126H112.896L107.632 118.16L112.812 110.768H107.464L104.972 114.52L102.48 110.768H97.1038L102.284 118.16L97.0198 126H102.172L104.972 122.192Z" fill="black"/>
<path d="M124.681 110.768L121.349 117.936L117.989 110.768H112.949L120.229 126H122.441L129.721 110.768H124.681Z" fill="black"/>
<path d="M137.999 110.488C135.675 110.488 133.715 111.244 132.091 112.784C130.439 114.324 129.627 116.172 129.627 118.384C129.627 120.568 130.439 122.416 132.091 123.956C133.715 125.496 135.675 126.252 137.999 126.252C140.295 126.252 142.255 125.496 143.907 123.956C145.531 122.416 146.343 120.568 146.343 118.384C146.343 116.2 145.531 114.324 143.907 112.784C142.255 111.244 140.295 110.488 137.999 110.488ZM137.999 121.996C136.991 121.996 136.123 121.632 135.423 120.932C134.723 120.232 134.359 119.364 134.359 118.384C134.359 117.376 134.723 116.508 135.423 115.808C136.123 115.108 136.991 114.744 137.999 114.744C138.979 114.744 139.847 115.108 140.547 115.808C141.247 116.508 141.611 117.376 141.611 118.384C141.611 119.364 141.247 120.232 140.547 120.932C139.847 121.632 138.979 121.996 137.999 121.996Z" fill="black"/>
<path d="M157.352 109.872C156.736 108.22 155.812 106.904 154.608 105.98C153.376 105.056 151.948 104.608 150.296 104.608C149.988 104.608 149.484 104.664 148.784 104.804V108.472C149.484 108.388 149.904 108.332 150.1 108.332C151.528 108.332 152.62 109.144 153.376 110.768L153.152 111.02L147.132 126H152.312L155.14 116.844L155.28 116.648L158.192 126H163.372L157.352 109.872Z" fill="black"/>
<path d="M171.633 110.488C169.309 110.488 167.349 111.244 165.725 112.784C164.073 114.324 163.261 116.172 163.261 118.384C163.261 120.568 164.073 122.416 165.725 123.956C167.349 125.496 169.309 126.252 171.633 126.252C173.929 126.252 175.889 125.496 177.541 123.956C179.165 122.416 179.977 120.568 179.977 118.384C179.977 116.2 179.165 114.324 177.541 112.784C175.889 111.244 173.929 110.488 171.633 110.488ZM171.633 121.996C170.625 121.996 169.757 121.632 169.057 120.932C168.357 120.232 167.993 119.364 167.993 118.384C167.993 117.376 168.357 116.508 169.057 115.808C169.757 115.108 170.625 114.744 171.633 114.744C172.613 114.744 173.481 115.108 174.181 115.808C174.881 116.508 175.245 117.376 175.245 118.384C175.245 119.364 174.881 120.232 174.181 120.932C173.481 121.632 172.613 121.996 171.633 121.996Z" fill="black"/>
<path d="M192.414 110.768L189.026 119.28L185.582 110.768H180.654L186.618 126V130.872H191.462V126.112L197.314 110.768H192.414Z" fill="black"/>
<path d="M198.855 126H203.671V110.768H198.855V126ZM207.675 104.776L202.495 104.356L199.387 109.48H202.271L207.675 104.776Z" fill="black"/>
<path d="M217.392 110.768V111.496C216.104 110.796 214.788 110.46 213.472 110.46C211.316 110.46 209.496 111.188 208.04 112.616C206.556 114.072 205.828 115.976 205.828 118.356C205.828 120.708 206.556 122.612 208.04 124.068C209.496 125.524 211.316 126.252 213.472 126.252C214.844 126.252 216.16 125.86 217.392 125.104V126H222.236V110.768H217.392ZM217.392 120.96C216.552 121.66 215.544 121.996 214.34 121.996C213.192 121.996 212.296 121.66 211.624 121.016C210.924 120.372 210.588 119.476 210.588 118.356C210.588 117.32 210.952 116.452 211.652 115.752C212.352 115.08 213.248 114.744 214.34 114.744C215.544 114.744 216.552 115.08 217.392 115.78V120.96Z" fill="black"/>
<path d="M43.5 0.583252C30.8637 0.583252 20.5833 10.8637 20.5833 23.4999C20.5833 36.1362 30.8637 46.4166 43.5 46.4166C56.1362 46.4166 66.4166 36.1362 66.4166 23.4999C66.4166 10.8637 56.1362 0.583252 43.5 0.583252ZM37.7708 7.45825C43.7543 7.45825 45.3379 12.823 45.6954 19.501C45.04 19.1389 44.2998 18.9166 43.5 18.9166C42.0791 18.9166 40.8256 19.5766 39.9846 20.5895C39.3383 19.8287 38.4835 19.3085 37.3766 18.8753C34.4502 18.1924 32.0416 16.217 32.0416 13.1874C32.0416 10.0226 34.606 7.45825 37.7708 7.45825ZM37.5623 37.7266C34.5762 38.7739 31.306 37.2018 30.2587 34.2158C28.2787 28.5737 32.8162 25.3057 38.9923 22.7597C38.951 23.0026 38.9166 23.2455 38.9166 23.4999C38.9166 25.473 40.1702 27.1391 41.9187 27.7853C41.4191 28.647 41.206 29.621 41.1648 30.808C41.4856 33.7964 40.42 36.7228 37.5623 37.7266ZM41.2083 23.4999C41.2083 22.2349 42.235 21.2083 43.5 21.2083C44.765 21.2083 45.7916 22.2349 45.7916 23.4999C45.7916 24.7649 44.765 25.7916 43.5 25.7916C42.235 25.7916 41.2083 24.7649 41.2083 23.4999ZM59.4064 29.5935C55.5129 34.1333 50.4139 31.8462 45.1156 27.7762C46.8458 27.1208 48.0833 25.4593 48.0833 23.4999C48.0833 23.2364 48.0489 22.9797 48.0054 22.7276C49 22.7253 49.9487 22.4183 50.996 21.8614C53.4206 20.0853 56.4891 19.5422 58.7877 21.5153C61.1893 23.5732 61.4666 27.1918 59.4064 29.5935Z" fill="#2F4858"/>
</svg>
