<svg width="205" height="163" viewBox="0 0 205 163" fill="none" xmlns="http://www.w3.org/2000/svg">
<path d="M204.687 71.5712C202.922 123.74 159.2 164.601 107.031 162.836C54.8615 161.071 14.0008 117.349 15.7658 65.1796C17.5308 13.0105 59.2989 29.9091 111.468 31.6741C163.637 33.439 206.452 19.4021 204.687 71.5712Z" fill="#2F4858"/>
<path d="M188.701 45.439C196.425 97.0633 160.837 145.175 109.213 152.898C57.5882 160.622 9.47698 125.034 1.75308 73.4097C-5.97083 21.7854 38.169 30.8302 89.7934 23.1063C141.418 15.3823 180.977 -6.18535 188.701 45.439Z" fill="#FFCB3D"/>
<path d="M46.3322 70.1L50.4402 64.848L46.4882 59.57H55.1722V55.67H39.9362V57.724L45.2402 64.848L39.5722 71.946V74H55.3802V70.1H46.3322Z" fill="black"/>
<path d="M70.605 63.626C71.359 63.808 71.983 64.198 72.451 64.796C72.9191 65.394 73.1531 66.096 73.1531 66.928C73.1531 69.164 72.451 70.282 71.0471 70.282C69.8251 70.282 69.201 69.242 69.201 67.188V65.082H65.0151V67.188C65.0151 69.242 64.391 70.282 63.169 70.282C61.765 70.282 61.063 69.164 61.063 66.928C61.063 66.096 61.2971 65.394 61.765 64.796C62.2071 64.198 62.8311 63.808 63.611 63.626V59.596C61.6091 59.622 59.9711 60.272 58.6451 61.598C57.319 62.924 56.643 64.718 56.643 66.928C56.643 69.19 57.189 70.958 58.307 72.258C59.399 73.584 60.933 74.234 62.883 74.234C64.9631 74.234 66.3671 73.35 67.121 71.556C67.823 73.35 69.227 74.234 71.359 74.234C73.2831 74.234 74.7911 73.584 75.909 72.258C77.027 70.958 77.5731 69.19 77.5731 66.928C77.5731 64.718 76.923 62.924 75.5971 61.598C74.271 60.272 72.607 59.622 70.605 59.596V63.626Z" fill="black"/>
<path d="M87.7959 59.024C87.2239 57.49 86.3659 56.268 85.2479 55.41C84.1039 54.552 82.7779 54.136 81.2439 54.136C80.9579 54.136 80.4899 54.188 79.8399 54.318V57.724C80.4899 57.646 80.8799 57.594 81.0619 57.594C82.3879 57.594 83.4019 58.348 84.1039 59.856L83.8959 60.09L78.3059 74H83.1159L85.7419 65.498L85.8719 65.316L88.5759 74H93.3859L87.7959 59.024Z" fill="black"/>
<path d="M102.111 59.596C100.993 59.596 99.9012 59.882 98.8872 60.48V59.856H94.4152V74H98.8872V64.406C99.5372 63.834 100.343 63.548 101.279 63.548C102.137 63.548 102.735 63.756 103.125 64.172C103.489 64.614 103.671 65.29 103.671 66.2V74H108.169V66.2C108.169 63.834 107.701 62.118 106.791 61.104C105.855 60.09 104.295 59.596 102.111 59.596ZM106.921 54.292L102.111 53.902L99.2252 58.66H101.903L106.921 54.292Z" fill="black"/>
<path d="M120.15 59.856L117.056 66.512L113.936 59.856H109.256L116.016 74H118.07L124.83 59.856H120.15Z" fill="black"/>
<path d="M135.815 59.856V60.532C134.619 59.882 133.397 59.57 132.175 59.57C130.173 59.57 128.483 60.246 127.131 61.572C125.753 62.924 125.077 64.692 125.077 66.902C125.077 69.086 125.753 70.854 127.131 72.206C128.483 73.558 130.173 74.234 132.175 74.234C133.449 74.234 134.671 73.87 135.815 73.168V74H140.313V59.856H135.815ZM135.815 69.32C135.035 69.97 134.099 70.282 132.981 70.282C131.915 70.282 131.083 69.97 130.459 69.372C129.809 68.774 129.497 67.942 129.497 66.902C129.497 65.94 129.835 65.134 130.485 64.484C131.135 63.86 131.967 63.548 132.981 63.548C134.099 63.548 135.035 63.86 135.815 64.51V69.32Z" fill="black"/>
<path d="M152.526 71.712C152.136 71.478 151.642 71.244 151.018 71.01C150.368 70.776 149.822 70.568 149.354 70.386C148.86 70.204 148.392 69.944 147.924 69.658C147.43 69.372 147.066 69.008 146.806 68.54C146.546 68.098 146.416 67.552 146.416 66.902C146.416 65.992 146.754 65.186 147.404 64.536C148.054 63.886 148.86 63.548 149.77 63.548C150.992 63.548 151.928 64.094 152.552 65.186L155.412 62.534C154.762 61.598 153.956 60.87 152.968 60.35C151.98 59.856 150.914 59.596 149.77 59.596C147.69 59.596 145.87 60.298 144.336 61.728C142.802 63.158 142.022 64.874 142.022 66.902C142.022 70.49 144.388 72.986 149.146 74.364C149.172 74.364 149.198 74.364 149.224 74.39C149.25 74.39 149.276 74.39 149.302 74.416C149.64 74.494 149.848 74.572 149.978 74.65C150.082 74.702 150.134 74.806 150.134 74.936C150.134 75.248 149.484 75.898 148.184 76.886L149.692 79.122C150.862 78.94 151.954 78.394 152.968 77.51C153.982 76.6 154.502 75.612 154.502 74.546C154.502 73.948 154.32 73.376 153.956 72.856C153.566 72.362 153.098 71.972 152.526 71.712Z" fill="black"/>
<path d="M86.4919 89.57V85.67H72.1919V104H76.6639V99.19H85.0619V95.264H76.6639V89.57H86.4919Z" fill="black"/>
<path d="M88.2217 104H92.7197V84.396H88.2217V104Z" fill="black"/>
<path d="M108.711 98.176L108.737 97.214C108.737 94.952 108.139 93.106 106.917 91.702C105.695 90.298 104.005 89.596 101.847 89.596C99.7407 89.596 97.9987 90.298 96.6207 91.702C95.2427 93.132 94.5667 94.874 94.5667 96.928C94.5667 98.982 95.2427 100.724 96.6207 102.128C97.9987 103.532 99.7407 104.234 101.847 104.234C103.225 104.234 104.499 103.974 105.617 103.428C106.735 102.908 107.619 102.18 108.269 101.244L105.461 98.93C105.123 99.424 104.655 99.84 104.057 100.152C103.459 100.49 102.887 100.646 102.315 100.646C101.535 100.646 100.859 100.438 100.287 99.996C99.7147 99.58 99.2987 98.982 99.0387 98.176H108.711ZM99.0387 95.576C99.2207 94.848 99.5587 94.25 100.053 93.782C100.547 93.314 101.145 93.08 101.847 93.08C102.809 93.08 103.511 93.34 103.901 93.834C104.291 94.354 104.499 94.926 104.499 95.576H99.0387Z" fill="black"/>
<path d="M115.916 100.464L118.464 104H123.274L118.386 96.72L123.196 89.856H118.23L115.916 93.34L113.602 89.856H108.61L113.42 96.72L108.532 104H113.316L115.916 100.464Z" fill="black"/>
<path d="M130.776 0.642079C128.933 0.779647 127.173 1.73538 126.083 3.3723C125.136 4.79226 124.814 6.55962 125.207 8.22029C125.601 9.88095 126.676 11.321 128.158 12.1668L139.186 16.0142L136.758 20.0383C135.717 19.5382 134.633 19.0914 133.489 18.7401C133.096 18.6208 132.278 18.4783 131.871 18.4209C128.23 17.9063 124.662 18.9242 122.063 21.1899C119.714 23.2326 118.419 26.0998 118.419 29.2555V31.5415C118.419 36.4197 122.374 40.3748 127.252 40.3748H139.531C142.7 40.3748 145.543 38.4232 146.687 35.2896C147.511 33.0239 147.038 30.5363 145.863 28.4317C144.538 26.0579 142.727 24.006 140.541 22.3372L143.021 18.2052C143.699 17.0194 143.794 15.6124 143.28 14.3493C142.765 13.0839 141.714 12.1446 140.515 11.8045L130.206 8.24185C129.853 7.99452 129.609 7.63511 129.508 7.2067C129.395 6.72528 129.484 6.23513 129.758 5.82217C130.27 5.05588 131.303 4.81738 132.1 5.27009L144.479 9.19506C144.881 9.47773 145.178 9.88271 145.324 10.3553L153.989 38.8092C154.272 39.7389 155.131 40.3748 156.103 40.3748H162.585V35.9582H157.599L149.542 9.06135C149.045 7.44706 147.968 6.09411 146.501 5.25715L134.054 1.3063C133.014 0.770507 131.882 0.559538 130.776 0.642079ZM127.252 27.1248C129.692 27.1248 131.669 29.1013 131.669 31.5415C131.669 33.9817 129.692 35.9582 127.252 35.9582C124.812 35.9582 122.835 33.9817 122.835 31.5415C122.835 29.1013 124.812 27.1248 127.252 27.1248Z" fill="#2F4858"/>
</svg>
