<svg width="205" height="171" viewBox="0 0 205 171" fill="none" xmlns="http://www.w3.org/2000/svg">
<path d="M204.687 79.5713C202.922 131.74 159.2 172.601 107.031 170.836C54.8615 169.071 14.0008 125.349 15.7658 73.1797C17.5308 21.0106 59.2989 37.9092 111.468 39.6742C163.637 41.4392 206.452 27.4022 204.687 79.5713Z" fill="#2F4858"/>
<path d="M188.701 53.4391C196.425 105.063 160.837 153.175 109.213 160.899C57.5882 168.622 9.47698 133.034 1.75308 81.4098C-5.97083 29.7855 38.169 38.8303 89.7934 31.1064C141.418 23.3825 180.977 1.81476 188.701 53.4391Z" fill="#13E6CD"/>
<path d="M67.4717 71.588C67.4717 69.352 66.6137 67.48 64.8717 65.972C63.1297 64.49 61.1277 63.736 58.8137 63.736V62.67H54.3417V63.736C52.0017 63.736 49.9737 64.516 48.2577 66.05C46.5417 67.61 45.6837 69.482 45.6837 71.692C45.6837 74.006 46.5677 75.904 48.3097 77.386C50.0517 78.894 52.0797 79.648 54.3417 79.648V81H58.8137V79.648C61.2057 79.622 63.2597 78.842 64.9497 77.282C66.6397 75.748 67.4717 73.85 67.4717 71.588ZM50.1817 71.692C50.1817 70.548 50.5457 69.612 51.2997 68.858C52.0537 68.104 53.0677 67.74 54.3417 67.74V75.644C53.0677 75.644 52.0537 75.28 51.2997 74.552C50.5457 73.824 50.1817 72.862 50.1817 71.692ZM58.8137 67.74C60.0877 67.74 61.1017 68.104 61.8557 68.832C62.6097 69.586 62.9737 70.522 62.9737 71.692C62.9737 72.862 62.6097 73.798 61.8557 74.526C61.1017 75.28 60.0877 75.644 58.8137 75.644V67.74Z" fill="black"/>
<path d="M69.4499 81H73.9219V66.856H69.4499V81ZM77.6399 61.292L72.8299 60.902L69.9439 65.66H72.6219L77.6399 61.292Z" fill="black"/>
<path d="M84.8683 66.024C84.2963 64.49 83.4383 63.268 82.3203 62.41C81.1763 61.552 79.8503 61.136 78.3163 61.136C78.0303 61.136 77.5623 61.188 76.9123 61.318V64.724C77.5623 64.646 77.9523 64.594 78.1343 64.594C79.4603 64.594 80.4743 65.348 81.1763 66.856L80.9683 67.09L75.3783 81H80.1883L82.8143 72.498L82.9443 72.316L85.6483 81H90.4583L84.8683 66.024Z" fill="black"/>
<path d="M102.596 66.856H90.3497V70.47H94.2497V81H98.7477V70.47H102.596V66.856Z" fill="black"/>
<path d="M111.349 66.596C109.191 66.596 107.371 67.272 105.889 68.598C104.407 69.95 103.653 71.64 103.653 73.694V85.524H108.151V80.376C109.295 80.948 110.517 81.234 111.791 81.234C113.793 81.234 115.483 80.558 116.861 79.206C118.213 77.88 118.889 76.112 118.889 73.928C118.889 71.744 118.135 69.976 116.653 68.624C115.171 67.272 113.403 66.596 111.349 66.596ZM110.985 77.282C109.867 77.282 108.931 76.97 108.151 76.32V73.174C108.151 72.524 108.359 72.004 108.749 71.562C109.139 71.146 109.555 70.86 109.971 70.73C110.361 70.6 110.751 70.548 111.089 70.548C112.103 70.548 112.935 70.86 113.559 71.484C114.183 72.108 114.495 72.914 114.495 73.928C114.495 74.942 114.183 75.774 113.533 76.372C112.883 76.97 112.025 77.282 110.985 77.282Z" fill="black"/>
<path d="M130.907 66.856V67.532C129.711 66.882 128.489 66.57 127.267 66.57C125.265 66.57 123.575 67.246 122.223 68.572C120.845 69.924 120.169 71.692 120.169 73.902C120.169 76.086 120.845 77.854 122.223 79.206C123.575 80.558 125.265 81.234 127.267 81.234C128.541 81.234 129.763 80.87 130.907 80.168V81H135.405V66.856H130.907ZM130.907 76.32C130.127 76.97 129.191 77.282 128.073 77.282C127.007 77.282 126.175 76.97 125.551 76.372C124.901 75.774 124.589 74.942 124.589 73.902C124.589 72.94 124.927 72.134 125.577 71.484C126.227 70.86 127.059 70.548 128.073 70.548C129.191 70.548 130.127 70.86 130.907 71.51V76.32Z" fill="black"/>
<path d="M68.2896 92.67V101.328H60.9836V92.67H56.5116V111H60.9836V105.228H68.2896V111H72.7876V92.67H68.2896Z" fill="black"/>
<path d="M80.1413 107.1V104.006H88.0453V100.21H80.1413V96.57H89.6573V92.67H75.6693V111H90.2033V107.1H80.1413Z" fill="black"/>
<path d="M92.3895 92.67V111H96.9915V106.788H99.3575C101.906 106.788 103.908 106.19 105.364 105.02C106.82 103.85 107.548 102.004 107.548 99.508C107.548 97.532 106.95 95.894 105.78 94.594C104.584 93.32 102.686 92.67 100.112 92.67H92.3895ZM96.9915 103.018V96.57H99.3315C100.502 96.57 101.36 96.882 101.906 97.506C102.452 98.13 102.712 98.91 102.712 99.846C102.712 100.756 102.4 101.51 101.776 102.108C101.152 102.706 100.19 103.018 98.8895 103.018H96.9915Z" fill="black"/>
<path d="M121.161 111H125.997L117.079 92.67H114.869L105.977 111H110.813L112.243 107.776H119.705L121.161 111ZM115.961 99.404L118.067 103.98H113.881L115.961 99.404Z" fill="black"/>
<path d="M149.189 0.75C145.586 0.75 142.627 3.70898 142.627 7.3125H146.377C146.377 5.67188 147.549 4.5 149.189 4.5C150.83 4.5 152.002 5.67188 152.002 7.3125C152.002 8.95312 150.83 10.125 149.189 10.125H125.752V13.875H149.189C152.793 13.875 155.752 10.916 155.752 7.3125C155.752 3.70898 152.793 0.75 149.189 0.75ZM125.752 17.625V21.375H155.752C157.986 21.375 159.502 22.8911 159.502 25.125C159.502 27.3589 157.986 28.875 155.752 28.875C153.518 28.875 152.002 27.3589 152.002 25.125H148.252C148.252 29.2705 151.606 32.625 155.752 32.625C159.897 32.625 163.252 29.2705 163.252 25.125C163.252 20.9795 159.897 17.625 155.752 17.625H125.752ZM125.752 25.125V28.875H137.939C139.58 28.875 140.752 30.0469 140.752 31.6875C140.752 33.3281 139.58 34.5 137.939 34.5C136.299 34.5 135.127 33.3281 135.127 31.6875H131.377C131.377 35.291 134.336 38.25 137.939 38.25C141.543 38.25 144.502 35.291 144.502 31.6875C144.502 28.084 141.543 25.125 137.939 25.125H125.752Z" fill="#2F4858"/>
</svg>
