<svg width="24" height="24" viewBox="0 0 24 24" fill="none" xmlns="http://www.w3.org/2000/svg">
<path d="M12.0005 2C9.79447 2 8.00047 3.794 8.00047 6H5.00047C4.00147 6 3.17014 6.69552 3.01414 7.72852L2.02196 20.7773C1.93396 21.3513 2.11324 21.9275 2.51024 22.3555C2.88824 22.7655 3.43247 23 4.00047 23H20.0005C20.5685 23 21.1118 22.7654 21.4888 22.3574C21.8878 21.9274 22.0658 21.3525 21.9868 20.8535L20.9888 7.72852L20.979 7.65234C20.831 6.69534 19.9995 6 19.0005 6H16.0005C16.0005 3.794 14.2065 2 12.0005 2ZM12.0005 4C13.1035 4 14.0005 4.897 14.0005 6H10.0005C10.0005 4.897 10.8975 4 12.0005 4ZM6.67625 10.2051H8.31297V14.168L8.47703 13.9492L9.71141 12.4141H11.6723L9.8325 14.5762L11.7934 17.6699H9.92039L8.77391 15.7129L8.31102 16.1738V17.6699H6.67625V10.2051ZM14.4067 12.3184C14.9537 12.3184 15.382 12.5021 15.688 12.8711L15.7466 12.4141H17.2329V17.4707C17.2329 17.9337 17.1257 18.3357 16.9087 18.6777C16.6937 19.0187 16.3841 19.2809 15.9751 19.4629C15.5671 19.6469 15.0941 19.7363 14.5571 19.7363C14.1721 19.7363 13.799 19.6646 13.438 19.5176C13.077 19.3716 12.8008 19.1832 12.6098 18.9512L13.2954 17.9883C13.5994 18.3473 14.0005 18.5273 14.4985 18.5273C15.2235 18.5273 15.5864 18.1561 15.5864 17.4121V17.2461C15.2724 17.5931 14.875 17.7656 14.397 17.7656C13.756 17.7656 13.2383 17.5222 12.8423 17.0312C12.4473 16.5412 12.2505 15.8855 12.2505 15.0625V15.0039C12.2505 14.4739 12.3382 14.0037 12.5122 13.5957C12.6882 13.1887 12.9391 12.8714 13.2661 12.6504C13.5931 12.4294 13.9727 12.3184 14.4067 12.3184ZM14.8247 13.5801C14.5327 13.5791 14.3051 13.7107 14.1391 13.9707C13.9741 14.2327 13.8911 14.6095 13.8911 15.1055C13.8911 15.5355 13.9732 15.877 14.1352 16.127C14.2962 16.378 14.5229 16.5039 14.8149 16.5039C15.1669 16.5039 15.4244 16.3844 15.5864 16.1484V13.9395C15.4284 13.7005 15.1747 13.5801 14.8247 13.5801Z" fill="black"/>
</svg>
