<svg width="158" height="43" viewBox="0 0 158 43" fill="none" xmlns="http://www.w3.org/2000/svg">
<path d="M15.1028 7.67033C15.1028 12.2579 12.4127 14.2309 7.58009 14.2309H5.67562V18.0816H0.890625V1.32373H7.65151C12.4841 1.32373 15.1028 3.53434 15.1028 7.67033ZM10.0797 7.83672C10.0797 6.17281 9.41315 5.29333 7.38964 5.29333H5.67562V10.3088H7.38964C9.41315 10.3088 10.0797 9.26292 10.0797 7.83672Z" fill="white"/>
<path d="M16.5078 11.4973V1.32373H21.3404V10.3326C21.3404 13.1137 22.3879 14.0882 24.1019 14.0882C25.8159 14.0882 26.911 13.1137 26.911 10.3326V1.32373H31.7436V11.4973C31.7436 16.0849 29.0297 18.4619 24.1019 18.4619C19.1741 18.4619 16.5078 16.0849 16.5078 11.4973Z" fill="white"/>
<path d="M49.241 13.0424C49.241 16.2751 47.1699 18.0816 43.1705 18.0816H34.1719V1.32373H43.1943C46.1701 1.32373 47.7174 2.63108 47.7174 5.19824C47.7174 6.88592 46.9319 8.07442 45.6939 8.6449C47.6222 9.02522 49.241 10.5465 49.241 13.0424ZM38.8616 8.00311H41.6469C42.9325 8.00311 43.4562 7.52771 43.4562 6.62445C43.4562 5.67365 42.9325 5.24578 41.6469 5.24578H38.8616V8.00311ZM44.1942 12.4956C44.1942 11.6399 43.7657 11.0219 42.0992 11.0219H38.9807V14.1833H42.0992C43.7657 14.1833 44.1942 13.6128 44.1942 12.4956Z" fill="white"/>
<path d="M50.8125 1.32373H55.6927V13.8743H63.6201V18.0816H50.8125V1.32373Z" fill="white"/>
<path d="M65.2383 1.32373H70.1185V18.0816H65.2383V1.32373Z" fill="white"/>
<path d="M72.5 9.69088C72.5 4.27132 75.809 0.967285 81.4272 0.967285C84.6886 0.967285 87.2121 2.2271 88.8547 4.20001L85.1171 7.24257C84.403 6.07784 83.2365 5.34097 81.6415 5.34097C78.999 5.34097 77.5231 6.9811 77.5231 9.69088C77.5231 12.4007 78.999 14.1121 81.6415 14.1121C83.2603 14.1121 84.4268 13.3752 85.1171 12.2105L88.8547 15.2531C87.2121 17.226 84.9267 18.462 81.4272 18.462C75.809 18.462 72.5 15.1104 72.5 9.69088Z" fill="white"/>
<path d="M109.925 1.32373V18.0816H107.64L98.8553 9.92848V18.0816H94.0703V1.32373H96.3557L105.164 9.45308V1.32373H109.925Z" fill="white"/>
<path d="M112.043 9.71474C112.043 4.55665 115.566 0.943604 121.018 0.943604C126.469 0.943604 129.993 4.55665 129.993 9.71474C129.993 14.8728 126.469 18.4621 121.018 18.4621C115.566 18.4621 112.043 14.8491 112.043 9.71474ZM124.97 9.71474C124.97 7.07627 123.398 5.26975 121.018 5.26975C118.637 5.26975 117.09 7.07627 117.09 9.71474C117.09 12.3532 118.661 14.136 121.018 14.136C123.375 14.136 124.97 12.3294 124.97 9.71474Z" fill="white"/>
<path d="M154.945 1.32373L148.47 18.1529H146.399L142.209 9.33423L138.019 18.1529H135.972L129.473 1.32373H134.734L137.4 9.73832L141.114 1.32373H143.328L146.994 9.71455L149.684 1.32373H154.945Z" fill="white"/>
<path d="M157.537 16.3474C157.537 20.9588 154.299 21.3154 152.371 21.3154V19.4138C153.609 19.4138 154.395 18.9859 154.49 18.1302C153.347 17.9638 152.419 17.1318 152.419 15.7532C152.419 14.0417 153.704 13.2573 155.037 13.2573C155.894 13.2573 157.537 13.7565 157.537 16.3474Z" fill="white"/>
<path d="M15.1028 31.6183C15.1028 36.2059 12.4127 38.1788 7.58009 38.1788H5.67562V42.0296H0.890625V25.2717H7.65151C12.4841 25.2717 15.1028 27.4823 15.1028 31.6183ZM10.0797 31.7847C10.0797 30.1208 9.41315 29.2413 7.38964 29.2413H5.67562V34.2568H7.38964C9.41315 34.2568 10.0797 33.2109 10.0797 31.7847Z" fill="white"/>
<path d="M26.2691 39.6285H19.8891L18.8417 42.0293H13.6758L21.7698 25.2239H24.3884L32.5063 42.0293H27.3166L26.2691 39.6285ZM21.2937 35.9679H24.8646L23.0791 31.3565L21.2937 35.9679Z" fill="white"/>
<path d="M40.4585 36.1346V42.0296H35.5783V36.1346L29.5078 25.2717H35.1022L38.0303 31.6183L40.9823 25.2717H46.5529L40.4585 36.1346Z" fill="white"/>
<path d="M52.2656 25.2705H57.1458V37.8211H65.0732V42.0284H52.2656V25.2705Z" fill="white"/>
<path d="M77.9996 39.6285H71.6196L70.5721 42.0293H65.4062L73.5003 25.2239H76.1189L84.2367 42.0293H79.047L77.9996 39.6285ZM73.0241 35.9679H76.595L74.8096 31.3565L73.0241 35.9679Z" fill="white"/>
<path d="M86.9981 29.3126H82.0703V25.2717H96.7824V29.3126H91.8784V42.0296H86.9981V29.3126Z" fill="white"/>
<path d="M98.6406 25.2705H111.615V29.2401H103.378V31.9261H110.139V35.7769H103.378V38.0588H112.115V42.0284H98.6406V25.2705Z" fill="white"/>
<path d="M120.9 37.8461H119.043V42.0296H114.258V25.2717H121.304C126.137 25.2717 128.756 27.5061 128.756 31.547C128.756 34.2093 127.684 35.9682 125.732 36.9428L129.47 42.0296H123.661L120.9 37.8461ZM119.043 33.924H121.042C123.066 33.924 123.733 32.8781 123.733 31.7847C123.733 30.1208 123.066 29.2413 121.042 29.2413H119.043V33.924Z" fill="white"/>
<path d="M130.66 39.6049C130.66 38.2025 131.827 37.0615 133.255 37.0615C134.683 37.0615 135.826 38.2025 135.826 39.6049C135.826 41.0074 134.66 42.1483 133.255 42.1483C131.85 42.1483 130.66 41.0074 130.66 39.6049Z" fill="white"/>
</svg>
