<svg width="173" height="35" viewBox="0 0 173 35" fill="none" xmlns="http://www.w3.org/2000/svg">
<path d="M165.533 9.96934V21.0173C165.533 24.3029 166.905 25.9647 169.612 25.9647C170.632 25.9677 171.649 25.8589 172.645 25.6402V27.337C171.449 27.6808 170.207 27.839 168.963 27.8062C168.239 27.8292 167.517 27.7067 166.841 27.4462C166.165 27.1856 165.548 26.7922 165.027 26.2892C164.484 25.735 164.065 25.0719 163.797 24.3438C163.53 23.6156 163.42 22.839 163.475 22.0652V0.431641H165.533V8.19945H172.718V9.96934H165.533Z" fill="black"/>
<path d="M2.21791 22.3569C4.32759 23.3308 6.61137 23.871 8.93378 23.9456C9.77542 24.003 10.6156 23.8152 11.3527 23.4048C11.5943 23.2757 11.7961 23.083 11.9362 22.8476C12.0764 22.6121 12.1495 22.3429 12.1477 22.0689C12.1409 21.7877 12.0518 21.5147 11.8915 21.2835C11.7313 21.0524 11.5068 20.8732 11.2459 20.7682C10.2086 20.3104 9.11863 19.983 8.00083 19.7933C6.0721 19.4485 4.23101 18.7242 2.58433 17.6624C1.95913 17.2148 1.45817 16.6154 1.12866 15.9206C0.799148 15.2259 0.651922 14.4587 0.700854 13.6913C0.682919 12.8596 0.859658 12.0353 1.21696 11.284C1.57427 10.5328 2.10225 9.87549 2.75875 9.36459C4.30801 8.18202 6.2294 7.59303 8.17525 7.70421C10.8047 7.7356 13.4034 8.27316 15.8295 9.28752L14.1691 12.9706C12.2257 12.1922 10.1598 11.7642 8.06709 11.7064C6.15387 11.7064 5.179 12.2838 5.179 13.4398C5.179 13.9807 5.50351 14.3782 6.15387 14.704C7.22783 15.1693 8.35632 15.4968 9.51248 15.6789C11.4484 15.9926 13.2945 16.7179 14.9263 17.8057C15.5161 18.2798 15.9846 18.8874 16.2931 19.5784C16.6016 20.2694 16.7411 21.0239 16.7002 21.7796C16.7314 22.6347 16.5614 23.4853 16.204 24.2628C15.8466 25.0404 15.3117 25.7232 14.6423 26.2564C12.9564 27.4723 10.9036 28.0714 8.82832 27.9532C7.3363 27.9743 5.84658 27.8292 4.38667 27.5206C2.98407 27.2048 1.62513 26.7194 0.339844 26.0752L2.21791 22.3569Z" fill="black"/>
<path d="M39.9135 8.05977V27.6652H34.8999V26.2212C33.205 27.3651 31.2036 27.9694 29.1589 27.9545C27.8281 28.0062 26.5025 27.7608 25.2784 27.2362C24.0543 26.7116 22.9624 25.921 22.082 24.9218C20.3592 22.9456 19.4102 20.4125 19.4102 17.7908C19.4102 15.1691 20.3592 12.6361 22.082 10.6599C22.9699 9.67223 24.064 8.89189 25.287 8.37411C26.5099 7.85633 27.8318 7.61377 29.1589 7.66361C31.1842 7.67414 33.1686 8.23497 34.8999 9.28613V8.05842L39.9135 8.05977ZM34.8999 13.9089C33.5475 12.7734 31.8275 12.1701 30.0621 12.2121C28.9373 12.1728 27.8266 12.4721 26.8739 13.0714C25.9212 13.6706 25.1704 14.5421 24.7188 15.573C24.2671 16.6039 24.1355 17.7467 24.3408 18.8533C24.5462 19.9599 25.0791 20.9793 25.8706 21.7795C26.4152 22.3328 27.0693 22.7663 27.791 23.0522C28.5128 23.3381 29.2863 23.4702 30.0621 23.4399C31.824 23.5004 33.5464 22.9092 34.8999 21.7795V13.9089Z" fill="black"/>
<path d="M56.1237 4.62953C55.1489 4.52136 54.4633 4.4497 54.0658 4.4497C53.5845 4.3819 53.0942 4.41775 52.6278 4.55487C52.1614 4.69198 51.7297 4.92719 51.3616 5.24474C50.8683 5.99065 50.6393 6.88042 50.7113 7.77181V8.06116H55.9844V12.2107H50.7113V28.3115C50.7619 29.1402 50.6442 29.9705 50.3653 30.7524C50.0865 31.5343 49.6522 32.2517 49.0887 32.8613C48.4755 33.4195 47.7575 33.8503 46.9765 34.1288C46.1955 34.4073 45.367 34.528 44.5389 34.4839C43.6408 34.4788 42.7456 34.3818 41.8672 34.1945V30.1923C42.968 30.347 44.0855 30.0613 44.977 29.3973C45.5852 28.3103 45.8376 27.0601 45.699 25.8223V12.2107H42.9543V8.05845H45.699V6.79559C45.6188 5.88152 45.728 4.96071 46.02 4.0908C46.312 3.2209 46.7804 2.42064 47.3959 1.7401C48.6 0.664695 50.1792 0.107016 51.7916 0.187889C53.2587 0.213753 54.715 0.444488 56.1183 0.873403L56.1237 4.62953Z" fill="black"/>
<path d="M62.3301 19.2931C62.596 20.5653 63.304 21.7022 64.3285 22.5019C65.353 23.3017 66.6278 23.7126 67.9265 23.6617C68.9268 23.6696 69.9154 23.4471 70.8159 23.0114C71.6769 22.6168 72.4219 22.0073 72.9792 21.2415L76.1932 23.9132C75.2467 25.2065 73.9764 26.2278 72.51 26.8743C70.889 27.6093 69.1261 27.9786 67.3464 27.956C66.0106 28 64.6805 27.7623 63.4426 27.2584C62.2047 26.7545 61.0867 25.9958 60.1613 25.0314C58.3287 23.0806 57.3086 20.5047 57.3086 17.8281C57.3086 15.1516 58.3287 12.5756 60.1613 10.6248C61.0867 9.66049 62.2047 8.90172 63.4426 8.39785C64.6805 7.89398 66.0106 7.65629 67.3464 7.70023C68.6543 7.63732 69.96 7.86351 71.1706 8.3627C72.3812 8.86188 73.4668 9.62178 74.3502 10.5883C76.103 12.7154 77.0036 15.4175 76.8773 18.1709V18.7523C76.8515 18.9314 76.8392 19.1122 76.8408 19.2931H62.3301ZM64.0986 12.9383C63.1955 13.7695 62.5871 14.8719 62.3653 16.0792H72.0787C72.0243 14.9194 71.5787 13.8123 70.8145 12.9383C70.3571 12.499 69.8113 12.1623 69.2135 11.9506C68.6157 11.7389 67.9797 11.6571 67.3477 11.7106C66.1476 11.6824 64.9837 12.1227 64.1027 12.9383" fill="black"/>
<path d="M86.7755 12.2104V19.1427C86.6729 20.3671 86.8842 21.5975 87.3893 22.7176C87.6932 23.0697 88.0806 23.3401 88.5159 23.504C88.9512 23.6679 89.4206 23.7202 89.8812 23.656C90.2788 23.656 91.0373 23.5843 92.192 23.4761V27.2309C90.723 27.7102 89.1874 27.9539 87.6422 27.9529C86.8596 27.981 86.0794 27.8519 85.3476 27.5732C84.6158 27.2945 83.9474 26.8719 83.3817 26.3304C82.7999 25.7319 82.3512 25.0172 82.065 24.233C81.7789 23.4489 81.6617 22.6132 81.7213 21.7806V12.2104H78.9414V8.0595H81.7213V0.44043H86.7768V8.0595H92.265V12.2104H86.7755Z" fill="black"/>
<path d="M114.902 8.05835L106.814 28.7117C106.416 29.7471 105.815 30.6923 105.046 31.4916C104.306 32.249 103.422 32.8504 102.446 33.2601C101.504 33.6594 100.524 33.962 99.5209 34.1633C98.4725 34.3541 97.4091 34.4509 96.3435 34.4527C95.5133 34.4527 94.9346 34.4527 94.5736 34.4162L95.1874 30.6303H95.7283C98.9409 30.6303 101.001 29.6554 101.975 27.6692H101.541L93.8867 8.06376H99.1599L104.324 21.3873H104.685L109.74 8.06376L114.902 8.05835Z" fill="black"/>
<path d="M133.856 10.0444C134.655 10.9101 135.269 11.9299 135.66 13.0412C136.051 14.1526 136.211 15.3321 136.13 16.5074V27.6609H134.102V16.5074C134.159 15.589 134.024 14.6687 133.707 13.8048C133.39 12.9409 132.898 12.1522 132.26 11.4884C131.624 10.8906 130.875 10.4262 130.056 10.1224C129.237 9.81871 128.366 9.68184 127.494 9.71989C124.962 9.64032 122.495 10.5313 120.598 12.2105V27.6609H118.57V8.20284H120.598V10.2972C122.577 8.59048 125.137 7.71117 127.747 7.84183C128.86 7.7821 129.973 7.94626 131.021 8.32459C132.069 8.70293 133.031 9.28774 133.849 10.0444" fill="black"/>
<path d="M159.777 18.5658H142.523C142.723 20.6028 143.69 22.4877 145.227 23.839C146.706 25.215 148.659 25.9656 150.679 25.9334C152.032 25.9492 153.374 25.6783 154.615 25.1383C155.772 24.6325 156.789 23.8518 157.576 22.8641L158.983 24.0202C158.028 25.2309 156.788 26.186 155.373 26.8001C153.804 27.491 152.105 27.8359 150.391 27.8114C149.069 27.8537 147.753 27.6185 146.528 27.121C145.303 26.6236 144.196 25.875 143.278 24.9234C141.468 23.0039 140.461 20.4659 140.461 17.8282C140.461 15.1906 141.468 12.6526 143.278 10.7331C144.196 9.78149 145.303 9.03284 146.528 8.53541C147.753 8.03797 149.069 7.80278 150.391 7.845C151.67 7.78856 152.947 8.01124 154.131 8.49759C155.316 8.98394 156.381 9.72231 157.251 10.6614C158.996 12.694 159.9 15.3153 159.779 17.9911L159.777 18.5658ZM144.973 11.6701C143.533 13.0499 142.658 14.916 142.518 16.9054H157.754C157.733 14.9321 156.973 13.0385 155.624 11.5984C154.939 10.9154 154.121 10.3824 153.219 10.0332C152.318 9.68403 151.354 9.52637 150.388 9.57028C149.391 9.53819 148.398 9.70709 147.467 10.0669C146.536 10.4267 145.688 10.9701 144.972 11.6647" fill="black"/>
</svg>
