<svg width="24" height="24" viewBox="0 0 24 24" fill="none" xmlns="http://www.w3.org/2000/svg">
<path d="M16.1963 2C16.0673 2 15.9593 2.09661 15.9443 2.22461L15.8272 3.23633C15.3432 3.4043 14.9057 3.6598 14.5264 3.98828L13.5889 3.58398C13.4709 3.53298 13.3345 3.57745 13.2705 3.68945L12.333 5.31055C12.268 5.42155 12.2984 5.56363 12.4014 5.64062L13.21 6.24023C13.1625 6.48651 13.1318 6.73989 13.1318 7C13.1318 7.26011 13.1625 7.51349 13.21 7.75977L12.4014 8.35938C12.2984 8.43537 12.269 8.57745 12.333 8.68945L13.2705 10.3105C13.3345 10.4225 13.4709 10.469 13.5889 10.418L14.5264 10.0117C14.9057 10.3402 15.3432 10.5957 15.8272 10.7637L15.9443 11.7754C15.9593 11.9034 16.0673 12 16.1963 12H18.0674C18.1964 12 18.3043 11.9034 18.3193 11.7754L18.4365 10.7637C18.921 10.5955 19.3596 10.3407 19.7393 10.0117L20.6748 10.4141C20.7928 10.4651 20.9292 10.4206 20.9932 10.3086L21.9307 8.6875C21.9957 8.5765 21.9653 8.43442 21.8623 8.35742L21.0557 7.75781C21.1028 7.51218 21.1318 7.25938 21.1318 7C21.1318 6.73989 21.1011 6.48651 21.0537 6.24023L21.8623 5.64062C21.9653 5.56463 21.9947 5.42255 21.9307 5.31055L20.9932 3.68945C20.9292 3.57745 20.7928 3.53103 20.6748 3.58203L19.7373 3.98828C19.3579 3.6598 18.9205 3.4043 18.4365 3.23633L18.3193 2.22461C18.3043 2.09661 18.1964 2 18.0674 2H16.1963ZM17.1318 5.25C18.0978 5.25 18.8818 6.034 18.8818 7C18.8818 7.967 18.0978 8.75 17.1318 8.75C16.1658 8.75 15.3818 7.967 15.3818 7C15.3818 6.034 16.1658 5.25 17.1318 5.25ZM7.1963 9C7.0673 9 6.95934 9.09661 6.94434 9.22461L6.77052 10.7109C5.96325 10.9406 5.23453 11.3524 4.64942 11.9219L3.29005 11.3359C3.17205 11.2849 3.03569 11.3294 2.97169 11.4414L2.03419 13.0625C1.96919 13.1735 1.99955 13.3156 2.10255 13.3926L3.29981 14.2793C3.20064 14.6721 3.13184 15.0765 3.13184 15.5C3.13184 15.9235 3.20064 16.3279 3.29981 16.7207L2.10255 17.6094C1.99955 17.6854 1.97019 17.8275 2.03419 17.9395L2.97169 19.5605C3.03569 19.6725 3.17205 19.717 3.29005 19.666L4.64942 19.0781C5.23453 19.6476 5.96325 20.0594 6.77052 20.2891L6.94434 21.7754C6.95934 21.9034 7.0673 22 7.1963 22H9.06739C9.19639 22 9.30434 21.9034 9.31934 21.7754L9.49317 20.2891C10.3004 20.0594 11.0292 19.6476 11.6143 19.0781L12.9736 19.6641C13.0916 19.7151 13.228 19.6706 13.292 19.5586L14.2295 17.9375C14.2945 17.8265 14.2641 17.6844 14.1611 17.6074L12.9639 16.7207C13.063 16.3279 13.1318 15.9235 13.1318 15.5C13.1318 15.0765 13.063 14.6721 12.9639 14.2793L14.1611 13.3906C14.2641 13.3146 14.2935 13.1725 14.2295 13.0605L13.292 11.4395C13.228 11.3275 13.0916 11.283 12.9736 11.334L11.6143 11.9219C11.0292 11.3524 10.3004 10.9406 9.49317 10.7109L9.31934 9.22461C9.30434 9.09661 9.19639 9 9.06739 9H7.1963ZM8.13184 13.5C9.23685 13.5 10.1318 14.395 10.1318 15.5C10.1318 16.605 9.23685 17.5 8.13184 17.5C7.02684 17.5 6.13184 16.605 6.13184 15.5C6.13184 14.395 7.02684 13.5 8.13184 13.5Z" fill="black"/>
</svg>
